name Run_500 03_newCOP3_v24.mot
datacolumns 19
datarows 41
range 0.9875 1.0075
DataType=double
version=3
OpenSimVersion=4.3-2021-08-27-4bc7ad9
endheader
time	R_ground_force_vx	R_ground_force_vy	R_ground_force_vz	R_ground_force_px	R_ground_force_py	R_ground_force_pz	L_ground_force_vx	L_ground_force_vy	L_ground_force_vz	L_ground_force_px	L_ground_force_py	L_ground_force_pz	R_ground_torque_x	R_ground_torque_y	R_ground_torque_z	L_ground_torque_x	L_ground_torque_y	L_ground_torque_z
0.9875	-242.460281	1494.572144	3.215496	1.001086	0	-0.317862	0	0	0	0	0	0	0	-6.405491	0	0	0	0
0.988	-241.819885	1499.232178	2.889078	0.999247	0	-0.317852	0	0	0	0	0	0	0	-6.41685	0	0	0	0
0.9885	-241.077667	1503.983521	2.54369	0.997405	0	-0.317833	0	0	0	0	0	0	0	-6.423371	0	0	0	0
0.989	-240.234741	1508.824219	2.180571	0.99556	0	-0.317805	0	0	0	0	0	0	0	-6.425062	0	0	0	0
0.9895	-239.292328	1513.751831	1.800908	0.993713	0	-0.317769	0	0	0	0	0	0	0	-6.421933	0	0	0	0
0.99	-238.251755	1518.763062	1.405829	0.991865	0	-0.317725	0	0	0	0	0	0	0	-6.414001	0	0	0	0
0.9905	-237.11438	1523.854004	0.996405	0.990015	0	-0.317673	0	0	0	0	0	0	0	-6.401287	0	0	0	0
0.991	-235.881668	1529.019775	0.573641	0.988165	0	-0.317613	0	0	0	0	0	0	0	-6.383817	0	0	0	0
0.9915	-234.555145	1534.255127	0.138477	0.9863150000000001	0	-0.317546	0	0	0	0	0	0	0	-6.36162	0	0	0	0
0.992	-233.136414	1539.554199	-0.308216	0.984465	0	-0.317472	0	0	0	0	0	0	0	-6.334734	0	0	0	0
0.9925	-231.627121	1544.910522	-0.765633	0.982616	0	-0.317392	0	0	0	0	0	0	0	-6.303197	0	0	0	0
0.993	-230.029037	1550.317261	-1.233041	0.980768	0	-0.317305	0	0	0	0	0	0	0	-6.267055	0	0	0	0
0.9935	-228.343948	1555.767212	-1.709772	0.978921	0	-0.317212	0	0	0	0	0	0	0	-6.226355	0	0	0	0
0.994	-226.573715	1561.252686	-2.195226	0.977075	0	-0.317114	0	0	0	0	0	0	0	-6.181151	0	0	0	0
0.9945000000000001	-224.720276	1566.765503	-2.688869	0.975232	0	-0.317011	0	0	0	0	0	0	0	-6.131501	0	0	0	0
0.995	-222.785599	1572.297729	-3.190229	0.97339	0	-0.316903	0	0	0	0	0	0	0	-6.077466	0	0	0	0
0.9955000000000001	-220.771744	1577.84082	-3.698891	0.9715510000000001	0	-0.316792	0	0	0	0	0	0	0	-6.019113	0	0	0	0
0.996	-218.680786	1583.385986	-4.214498	0.969714	0	-0.316677	0	0	0	0	0	0	0	-5.956511	0	0	0	0
0.9965000000000001	-216.514862	1588.924805	-4.736743	0.967879	0	-0.316559	0	0	0	0	0	0	0	-5.889733	0	0	0	0
0.997	-214.276123	1594.448364	-5.265368	0.966047	0	-0.316438	0	0	0	0	0	0	0	-5.818859	0	0	0	0
0.9975000000000001	-211.966797	1599.947754	-5.800154	0.964218	0	-0.316316	0	0	0	0	0	0	0	-5.743967	0	0	0	0
0.998	-209.589127	1605.414307	-6.340921	0.962391	0	-0.316192	0	0	0	0	0	0	0	-5.665144	0	0	0	0
0.9985000000000001	-207.145386	1610.839355	-6.887518	0.960568	0	-0.316067	0	0	0	0	0	0	0	-5.582478	0	0	0	0
0.999	-204.637863	1616.213989	-7.439823	0.958747	0	-0.315941	0	0	0	0	0	0	0	-5.49606	0	0	0	0
0.9995000000000001	-202.068893	1621.530029	-7.997731	0.956929	0	-0.315815	0	0	0	0	0	0	0	-5.405986	0	0	0	0
1	-199.440826	1626.778931	-8.56115	0.955113	0	-0.315689	0	0	0	0	0	0	0	-5.312354	0	0	0	0
1.0005	-196.756027	1631.952515	-9.129998000000001	0.953301	0	-0.315563	0	0	0	0	0	0	0	-5.215264	0	0	0	0
1.001	-194.016876	1637.042969	-9.704196	0.951491	0	-0.315439	0	0	0	0	0	0	0	-5.11482	0	0	0	0
1.0015	-191.225784	1642.042603	-10.283657	0.949685	0	-0.315316	0	0	0	0	0	0	0	-5.011131	0	0	0	0
1.002	-188.385147	1646.94397	-10.868289	0.947881	0	-0.315194	0	0	0	0	0	0	0	-4.904305	0	0	0	0
1.0025	-185.497421	1651.739868	-11.457984	0.946079	0	-0.315074	0	0	0	0	0	0	0	-4.794453	0	0	0	0
1.003	-182.565018	1656.423584	-12.052613	0.944281	0	-0.314956	0	0	0	0	0	0	0	-4.681691	0	0	0	0
1.0035	-179.590424	1660.988647	-12.652023	0.942485	0	-0.31484	0	0	0	0	0	0	0	-4.566134	0	0	0	0
1.004	-176.576096	1665.428711	-13.256034	0.940692	0	-0.314727	0	0	0	0	0	0	0	-4.447902	0	0	0	0
1.0045	-173.52449	1669.738037	-13.864429	0.938901	0	-0.314616	0	0	0	0	0	0	0	-4.327116	0	0	0	0
1.005	-170.438126	1673.911133	-14.476957	0.937113	0	-0.314508	0	0	0	0	0	0	0	-4.203897	0	0	0	0
1.0055	-167.319458	1677.942871	-15.093328	0.935328	0	-0.314403	0	0	0	0	0	0	0	-4.078371	0	0	0	0
1.006	-164.171005	1681.828369	-15.713203	0.933545	0	-0.314301	0	0	0	0	0	0	0	-3.950662	0	0	0	0
1.0065	-160.995239	1685.563354	-16.336206	0.931764	0	-0.314202	0	0	0	0	0	0	0	-3.820899	0	0	0	0
1.007	-157.794678	1689.143677	-16.96191	0.929986	0	-0.314106	0	0	0	0	0	0	0	-3.689211	0	0	0	0
1.0075	-154.571762	1692.565674	-17.589842	0.92821	0	-0.314012	0	0	0	0	0	0	0	-3.555725	0	0	0	0
